<svg width="1024" height="1025" viewBox="0 0 1024 1025" fill="none" xmlns="http://www.w3.org/2000/svg">
<path fill-rule="evenodd" clip-rule="evenodd" d="M69.0155 121.879C73.1368 116.727 77.9707 112.059 83.4605 108.034L210.66 14.7537C224.801 4.38398 242.085 -0.792095 259.597 0.0983785L909.57 33.1478C950.103 35.2088 981.909 68.6735 981.909 109.258V845.747C981.909 889.356 945.383 924.072 901.83 921.857L880.297 920.762V947.79C880.297 991.237 844.03 1025.89 800.628 1023.92L114.748 992.743C74.047 990.893 42 957.357 42 916.613V180.085C42 156.682 52.5228 135.83 69.0155 121.879Z" fill="white"/>
<path fill-rule="evenodd" clip-rule="evenodd" d="M321.432 419.026C321.432 397.536 339.194 380.297 360.675 380.939L563.899 387.013C584.491 387.628 600.865 404.499 600.865 425.1V543.729C600.865 565.22 583.103 582.459 561.622 581.817L358.398 575.743C337.806 575.127 321.432 558.257 321.432 537.655V419.026ZM359.537 419.026L562.76 425.1V543.729L359.537 537.655V419.026Z" fill="url(#paint0_linear_21_38)"/>
<path fill-rule="evenodd" clip-rule="evenodd" d="M300.896 257.856C242.933 255.077 194.418 301.322 194.418 359.352V752.69C194.418 806.917 236.999 851.588 291.163 854.185L621.402 870.018C679.364 872.797 727.88 826.553 727.88 768.523V375.185C727.88 320.958 685.298 276.287 631.134 273.69L300.896 257.856ZM628.092 337.124L297.854 321.291C276.118 320.249 257.925 337.591 257.925 359.352V752.69C257.925 773.025 273.893 789.777 294.205 790.751L624.443 806.584C646.179 807.626 664.372 790.284 664.372 768.523V375.185C664.372 354.85 648.404 338.098 628.092 337.124Z" fill="url(#paint1_linear_21_38)"/>
<path fill-rule="evenodd" clip-rule="evenodd" d="M69.0155 121.879C73.1368 116.727 77.9707 112.059 83.4605 108.034L210.66 14.7537C224.801 4.38398 242.085 -0.792095 259.597 0.0983785L909.57 33.1478C950.103 35.2088 981.909 68.6735 981.909 109.258V845.747C981.909 889.356 945.383 924.072 901.83 921.857L880.297 920.762V947.79C880.297 991.237 844.03 1025.89 800.628 1023.92L114.748 992.743C74.047 990.893 42 957.357 42 916.613V180.085C42 156.682 52.5228 135.83 69.0155 121.879ZM257.017 50.8387L906.99 83.8882C920.501 84.5752 931.103 95.7301 931.103 109.258V845.747C931.103 860.283 918.928 871.855 904.41 871.117L880.297 869.891V211.261C880.297 170.518 848.25 136.981 807.549 135.131L171.826 106.235L240.705 55.7238C245.419 52.2672 251.18 50.5419 257.017 50.8387ZM119.362 154.708L805.242 185.885C818.809 186.501 829.491 197.68 829.491 211.261V947.79C829.491 962.272 817.402 973.824 802.935 973.166L117.055 941.99C103.488 941.373 92.8059 930.194 92.8059 916.613V180.085C92.8059 165.603 104.895 154.051 119.362 154.708Z" fill="url(#paint2_linear_21_38)"/>
<defs>
<linearGradient id="paint0_linear_21_38" x1="461.149" y1="-1.27836" x2="461.149" y2="1027.54" gradientUnits="userSpaceOnUse">
<stop stop-color="#879FBB"/>
<stop offset="1" stop-color="#3F4C5D"/>
</linearGradient>
<linearGradient id="paint1_linear_21_38" x1="461.149" y1="-1.27836" x2="461.149" y2="1027.54" gradientUnits="userSpaceOnUse">
<stop stop-color="#879FBB"/>
<stop offset="1" stop-color="#3F4C5D"/>
</linearGradient>
<linearGradient id="paint2_linear_21_38" x1="461.149" y1="-1.27836" x2="461.149" y2="1027.54" gradientUnits="userSpaceOnUse">
<stop stop-color="#879FBB"/>
<stop offset="1" stop-color="#3F4C5D"/>
</linearGradient>
</defs>
</svg>
